# xmcd
# 
# Track frame offsets:
#     150
#     13291
#     28692
#     43705
#     58082
#     69354
#     81200
#     97899
#     109912
#     124832
#     137470
#     149525
#     161305
#     175412
#     189523
#     202485
#     216567
#     227243
#     241935
#     255149
#     267594
#     281122
#     295002
#     308623
#     322288
#     338038
# 
# Disc length: 4706
# 
# Revision: 0
# Processed by: cddbd v1.5.2PL0 Copyright (c) Steve Scherf et al.
# Submitted via: fre:ac v1.0.17
# 
DISCID=9112601a
DTITLE=Django Reinhard - Nuages
DYEAR=0
DGENRE=Blues
TTITLE0=Night and Day
TTITLE1=Blues for Ike
TTITLE2=Nuages
TTITLE3=Insensiblement
TTITLE4=Brazil
TTITLE5=September Song
TTITLE6=Confessin'
TTITLE7=Manoir de mes Rêves
TTITLE8=September Song (1947)
TTITLE9=Brazil (1947)
TTITLE10=I'll never smile again
TTITLE11=New York City
TTITLE12=Django's Blues
TTITLE13=Love's Mood
TTITLE14=I love you
TTITLE15=Topsy
TTITLE16=Moppin' the Bride
TTITLE17=Insensiblement (1947)
TTITLE18=Mano
TTITLE19=Blues primitif
TTITLE20=Gipsy with a Song (Version 1)
TTITLE21=Gipsy with a Song (Version 2)
TTITLE22=Le Soir
TTITLE23=Chez moi
TTITLE24=I cover the Waterfront
TTITLE25=Deccaphonie
EXTD=
EXTT0=
EXTT1=
EXTT2=
EXTT3=
EXTT4=
EXTT5=
EXTT6=
EXTT7=
EXTT8=
EXTT9=
EXTT10=
EXTT11=
EXTT12=
EXTT13=
EXTT14=
EXTT15=
EXTT16=
EXTT17=
EXTT18=
EXTT19=
EXTT20=
EXTT21=
EXTT22=
EXTT23=
EXTT24=
EXTT25=
PLAYORDER=
